<?xml version="1.0" encoding="iso-8859-1"?>
<!-- Generator: Adobe Illustrator 17.0.0, SVG Export Plug-In . SVG Version: 6.00 Build 0)  -->
<!DOCTYPE svg PUBLIC "-//W3C//DTD SVG 1.1//EN" "http://www.w3.org/Graphics/SVG/1.1/DTD/svg11.dtd">
<svg version="1.1" id="Layer_1" xmlns="http://www.w3.org/2000/svg" xmlns:xlink="http://www.w3.org/1999/xlink" x="0px" y="0px"
	 width="59.91px" height="59.911px" viewBox="0 0 59.91 59.911" style="enable-background:new 0 0 59.91 59.911;"
	 xml:space="preserve">
<g>
	<path style="fill-rule:evenodd;clip-rule:evenodd;fill:#FFFFFF;" d="M7.69,0h44.53c4.23,0,7.689,3.46,7.689,7.69v44.531
		c0,4.23-3.459,7.69-7.689,7.69H7.69c-4.229,0-7.69-3.46-7.69-7.69V7.69C0,3.46,3.46,0,7.69,0L7.69,0z M43.642,6.656
		c-1.484,0-2.696,1.214-2.696,2.697v6.456c0,1.483,1.212,2.697,2.696,2.697h6.771c1.484,0,2.697-1.214,2.697-2.697V9.353
		c0-1.483-1.213-2.697-2.697-2.697H43.642L43.642,6.656z M53.14,25.336h-5.273c0.498,1.629,0.768,3.354,0.768,5.141
		c0,9.965-8.338,18.042-18.622,18.042c-10.285,0-18.622-8.077-18.622-18.042c0-1.787,0.269-3.512,0.768-5.141H6.657v25.307
		c0,1.311,1.072,2.382,2.381,2.382h41.719c1.311,0,2.383-1.071,2.383-2.382V25.336L53.14,25.336z M30.012,18.167
		c-6.645,0-12.032,5.22-12.032,11.659s5.387,11.659,12.032,11.659c6.646,0,12.032-5.22,12.032-11.659S36.658,18.167,30.012,18.167z"
		/>
</g>
</svg>
